<svg xmlns="http://www.w3.org/2000/svg" viewBox="0 0 105.5 133.01"><defs><style>.cls-1{fill:#fff;}</style></defs><g id="Layer_3" data-name="Layer 3"><path class="cls-1" d="M105.47,66.21V110.3a9.78,9.78,0,0,1,0,1v13c0,1.33-.06.33-.09,1.65-.19,7.58-2,6.76-5,7-.56.05-1.14,0-1.71,0q-42,0-84,0a13.86,13.86,0,0,1-12.13-6.27C.51,123.67,0,120.13,0,116.41.07,102.7,0,89,0,75.28Q0,46.42,0,17.57A21.45,21.45,0,0,1,1,9.69C3.24,4,7.26.68,13.41.3,16.64.1,19.89.21,23.12.21H96.26c1.33,0,2.67-.07,4,0,3.34.23,4.87.86,5.17,4.26.12,1.32,0,2.67,0,4Zm-87.7-59v96.76H96.43V7.17ZM97,111.3c-1.54,0-3.3,0-4.6,0-25.31,0-50.7,0-76,0a18,18,0,0,0-4.51.54A6.13,6.13,0,0,0,6.89,118a6.69,6.69,0,0,0,3.89,7,11.59,11.59,0,0,0,5.56.87c25.3,0,50.7,0,76,0,1.44,0,1.44,0,4.23.07C96.57,121.83,97,118.35,97,111.3ZM10.36,8.4c-4.11,2.14-3.52,5.4-3.53,8.31q-.06,41.64,0,83.28A33,33,0,0,0,7,104a1.66,1.66,0,0,0,1,1.16,1.57,1.57,0,0,0,1.91-.83c.89-1.8.49-3.74.5-5.61q0-36.79,0-73.59Z"/><path class="cls-1" d="M43.42,0a17.44,17.44,0,0,0,5,5.64C53,9.29,57.66,12.8,62.3,16.34A25,25,0,0,1,72.46,33.67c0,.22,0,.45,0,.84-.26-.35-.45-.58-.61-.82a54.9,54.9,0,0,0-8.55-10.3A30.4,30.4,0,0,0,50,15.68a27,27,0,0,0-2.69-.45,4.05,4.05,0,0,0-.76,0v1.14c0,19.09-.16,38.19-.09,57.29a12.39,12.39,0,0,1-6.69,11.53,16.38,16.38,0,0,1-14.94,1.14c-2.65-1.07-4.8-2.75-5.65-5.65a9.42,9.42,0,0,1,2-9,16.41,16.41,0,0,1,11.37-5.88,16.07,16.07,0,0,1,6.82.71V4.49C39.38,2,40.31.8,42.71.15c.08,0,.13-.1.2-.15Z"/><path class="cls-1" d="M72.57,111.1a16.25,16.25,0,0,0-4.66-5.23c-4.22-3.38-8.55-6.64-12.86-9.92a23.19,23.19,0,0,1-9.41-16.07,6.61,6.61,0,0,1,0-.78c.24.32.41.53.56.76a51.55,51.55,0,0,0,7.93,9.56,28.32,28.32,0,0,0,12.33,7.14A23.28,23.28,0,0,0,69,97a3.52,3.52,0,0,0,.7,0v-1c0-17.71.15-35.42.09-53.13A11.48,11.48,0,0,1,76,32.08,15.18,15.18,0,0,1,89.8,31c2.46,1,4.46,2.55,5.24,5.24a8.72,8.72,0,0,1-1.86,8.3,16,16,0,0,1-16.87,4.8v57.58c0,2.31-.86,3.42-3.09,4-.07,0-.12.09-.18.13Z"/></g></svg>